#Comment line ignore any data following # character 
#Hierarchical Translation and Rotation (.htr) file 
[Header]	
#Header keywords are followed by a single value 
FileType HTR		#Single word string
DataType HTRS		#Translation followed by rotation and scale data
FileVersion 1		#integer
NumSegments 64		#integer
NumFrames 3		#integer
DataFrameRate 30		#integer, data frame rate in this file
EulerRotationOrder ZYX
CalibrationUnits mm
RotationUnits Degrees
GlobalAxisofGravity Y
BoneLengthAxis Y
ScaleFactor 1.00
[SegmentNames&Hierarchy]
#CHILD	PARENT
Pinger_Root GLOBAL
Pelvis Pinger_Root
L_Hip Pelvis
R_Hip Pelvis
Rear_Leg01 Pelvis
Spine1 Pelvis
L_Leg01 L_Hip
L_Leg02 L_Leg01
L_Leg03 L_Leg02
L_Foot L_Leg03
L_Toe1_01 L_Foot
L_Toe2_01 L_Foot
L_Toe3_01 L_Foot
planeAlignerLeft L_Foot
L_Toe1_02 L_Toe1_01
L_Toe1_03 L_Toe1_02
L_Toe2_02 L_Toe2_01
L_Toe2_03 L_Toe2_02
L_Toe3_02 L_Toe3_01
L_Toe3_03 L_Toe3_02
planeLockWeightLeft planeAlignerLeft
R_Leg01 R_Hip
R_Leg02 R_Leg01
R_Leg03 R_Leg02
R_Foot R_Leg03
planeAlignerRight R_Foot
R_Toe1_01 R_Foot
R_Toe2_01 R_Foot
R_Toe3_01 R_Foot
planeLockWeightRight planeAlignerRight
R_Toe1_02 R_Toe1_01
R_Toe1_03 R_Toe1_02
R_Toe2_02 R_Toe2_01
R_Toe2_03 R_Toe2_02
R_Toe3_02 R_Toe3_01
R_Toe3_03 R_Toe3_02
Rear_Leg02 Rear_Leg01
Rear_Leg03 Rear_Leg02
Rear_Leg04 Rear_Leg03
Rear_Foot Rear_Leg04
planeAlignerCenter Rear_Foot
Rear_Toe1_01 Rear_Foot
Rear_Toe2_01 Rear_Foot
Rear_Toe3_01 Rear_Foot
planeLockWeightCenter planeAlignerCenter
Rear_Toe1_02 Rear_Toe1_01
Rear_Toe1_03 Rear_Toe1_02
Rear_Toe2_02 Rear_Toe2_01
Rear_Toe2_03 Rear_Toe2_02
Rear_Toe3_02 Rear_Toe3_01
Rear_Toe3_03 Rear_Toe3_02
Back_Bone Spine1
Head Spine1
Motor_Bone Back_Bone
Ping_Mechanism Back_Bone
BN_LookIK Head
bottomMouth Head
L_Mouth01 Head
L_mouthFront Head
mouthGun Head
R_Mouth01 Head
R_mouthFront Head
TopMouth Head
weapon_bone Head
[BasePosition]
#SegmentName Tx, Ty, Tz, Rx, Ry, Rz, BoneLength
Pinger_Root 0.000000 0.000000 0.000000 -90.000000 0.000000 0.000000 10.000000 
Pelvis 0.000000 0.000000 0.000000 0.000000 0.000000 0.000000 10.000000 
L_Hip 0.000000 0.000000 0.000000 0.000000 0.000000 0.000000 10.000000 
R_Hip 0.000000 0.000000 0.000000 0.000000 0.000000 0.000000 10.000000 
Rear_Leg01 0.000000 0.000000 0.000000 0.000000 0.000000 0.000000 10.000000 
Spine1 0.000000 0.000000 0.000000 0.000000 0.000000 0.000000 10.000000 
L_Leg01 0.000000 0.000000 0.000000 0.000000 0.000000 0.000000 10.000000 
L_Leg02 0.000000 0.000000 0.000000 0.000000 0.000000 0.000000 10.000000 
L_Leg03 0.000000 0.000000 0.000000 0.000000 0.000000 0.000000 10.000000 
L_Foot 0.000000 0.000000 0.000000 0.000000 0.000000 0.000000 10.000000 
L_Toe1_01 0.000000 0.000000 0.000000 0.000000 0.000000 0.000000 10.000000 
L_Toe2_01 0.000000 0.000000 0.000000 0.000000 0.000000 0.000000 10.000000 
L_Toe3_01 0.000000 0.000000 0.000000 0.000000 0.000000 0.000000 10.000000 
planeAlignerLeft 0.000000 0.000000 0.000000 0.000000 0.000000 0.000000 10.000000 
L_Toe1_02 0.000000 0.000000 0.000000 0.000000 0.000000 0.000000 10.000000 
L_Toe1_03 0.000000 0.000000 0.000000 0.000000 0.000000 0.000000 10.000000 
L_Toe2_02 0.000000 0.000000 0.000000 0.000000 0.000000 0.000000 10.000000 
L_Toe2_03 0.000000 0.000000 0.000000 0.000000 0.000000 0.000000 10.000000 
L_Toe3_02 0.000000 0.000000 0.000000 0.000000 0.000000 0.000000 10.000000 
L_Toe3_03 0.000000 0.000000 0.000000 0.000000 0.000000 0.000000 10.000000 
planeLockWeightLeft 0.000000 0.000000 0.000000 0.000000 0.000000 0.000000 10.000000 
R_Leg01 0.000000 0.000000 0.000000 0.000000 0.000000 0.000000 10.000000 
R_Leg02 0.000000 0.000000 0.000000 0.000000 0.000000 0.000000 10.000000 
R_Leg03 0.000000 0.000000 0.000000 0.000000 0.000000 0.000000 10.000000 
R_Foot 0.000000 0.000000 0.000000 0.000000 0.000000 0.000000 10.000000 
planeAlignerRight 0.000000 0.000000 0.000000 0.000000 0.000000 0.000000 10.000000 
R_Toe1_01 0.000000 0.000000 0.000000 0.000000 0.000000 0.000000 10.000000 
R_Toe2_01 0.000000 0.000000 0.000000 0.000000 0.000000 0.000000 10.000000 
R_Toe3_01 0.000000 0.000000 0.000000 0.000000 0.000000 0.000000 10.000000 
planeLockWeightRight 0.000000 0.000000 0.000000 0.000000 0.000000 0.000000 10.000000 
R_Toe1_02 0.000000 0.000000 0.000000 0.000000 0.000000 0.000000 10.000000 
R_Toe1_03 0.000000 0.000000 0.000000 0.000000 0.000000 0.000000 10.000000 
R_Toe2_02 0.000000 0.000000 0.000000 0.000000 0.000000 0.000000 10.000000 
R_Toe2_03 0.000000 0.000000 0.000000 0.000000 0.000000 0.000000 10.000000 
R_Toe3_02 0.000000 0.000000 0.000000 0.000000 0.000000 0.000000 10.000000 
R_Toe3_03 0.000000 0.000000 0.000000 0.000000 0.000000 0.000000 10.000000 
Rear_Leg02 0.000000 0.000000 0.000000 0.000000 0.000000 0.000000 10.000000 
Rear_Leg03 0.000000 0.000000 0.000000 0.000000 0.000000 0.000000 10.000000 
Rear_Leg04 0.000000 0.000000 0.000000 0.000000 0.000000 0.000000 10.000000 
Rear_Foot 0.000000 0.000000 0.000000 0.000000 0.000000 0.000000 10.000000 
planeAlignerCenter 0.000000 0.000000 0.000000 0.000000 0.000000 0.000000 10.000000 
Rear_Toe1_01 0.000000 0.000000 0.000000 0.000000 0.000000 0.000000 10.000000 
Rear_Toe2_01 0.000000 0.000000 0.000000 0.000000 0.000000 0.000000 10.000000 
Rear_Toe3_01 0.000000 0.000000 0.000000 0.000000 0.000000 0.000000 10.000000 
planeLockWeightCenter 0.000000 0.000000 0.000000 0.000000 0.000000 0.000000 10.000000 
Rear_Toe1_02 0.000000 0.000000 0.000000 0.000000 0.000000 0.000000 10.000000 
Rear_Toe1_03 0.000000 0.000000 0.000000 0.000000 0.000000 0.000000 10.000000 
Rear_Toe2_02 0.000000 0.000000 0.000000 0.000000 0.000000 0.000000 10.000000 
Rear_Toe2_03 0.000000 0.000000 0.000000 0.000000 0.000000 0.000000 10.000000 
Rear_Toe3_02 0.000000 0.000000 0.000000 0.000000 0.000000 0.000000 10.000000 
Rear_Toe3_03 0.000000 0.000000 0.000000 0.000000 0.000000 0.000000 10.000000 
Back_Bone 0.000000 0.000000 0.000000 0.000000 0.000000 0.000000 10.000000 
Head 0.000000 0.000000 0.000000 0.000000 0.000000 0.000000 10.000000 
Motor_Bone 0.000000 0.000000 0.000000 0.000000 0.000000 0.000000 10.000000 
Ping_Mechanism 0.000000 0.000000 0.000000 0.000000 0.000000 0.000000 10.000000 
BN_LookIK 0.000000 0.000000 0.000000 0.000000 0.000000 0.000000 10.000000 
bottomMouth 0.000000 0.000000 0.000000 0.000000 0.000000 0.000000 10.000000 
L_Mouth01 0.000000 0.000000 0.000000 0.000000 0.000000 0.000000 10.000000 
L_mouthFront 0.000000 0.000000 0.000000 0.000000 0.000000 0.000000 10.000000 
mouthGun 0.000000 0.000000 0.000000 0.000000 0.000000 0.000000 10.000000 
R_Mouth01 0.000000 0.000000 0.000000 0.000000 0.000000 0.000000 10.000000 
R_mouthFront 0.000000 0.000000 0.000000 0.000000 0.000000 0.000000 10.000000 
TopMouth 0.000000 0.000000 0.000000 0.000000 0.000000 0.000000 10.000000 
weapon_bone 0.000000 0.000000 0.000000 0.000000 0.000000 0.000000 10.000000 
#Beginning of Data. Separated by tabs
#Fr	Tx	Ty	Tz	Rx	Ry	Rz	SF
[Pinger_Root]
46 0.000000 0.000000 0.000000 -0.000075 -0.000000 -0.000020 0.000000
47 0.000000 0.000000 0.000000 -0.000075 -0.000000 -0.000020 0.000000
48 0.000000 0.000000 0.000000 -0.000075 -0.000000 -0.000020 0.000000
[Pelvis]
46 90.722748 897.684509 4160.425293 -93.593636 -78.391472 85.930222 4257.135742
47 90.246887 898.043213 4137.746094 -93.880638 -79.163696 86.221657 4235.041016
48 89.406662 898.610840 4125.957031 -94.165428 -79.927132 86.509178 4223.625977
[L_Hip]
46 5.766392 125.831482 872.656799 160.158691 -45.484905 122.312202 881.701050
47 5.766392 125.831482 872.656799 160.158691 -45.484905 122.312202 881.701050
48 5.766392 125.831482 872.656799 160.158691 -45.484905 122.312202 881.701050
[R_Hip]
46 5.765438 125.836372 -872.654907 38.087841 49.812687 125.703735 881.699829
47 5.765438 125.836372 -872.654907 38.087841 49.812687 125.703735 881.699829
48 5.765438 125.836372 -872.654907 38.087841 49.812687 125.703735 881.699829
[Rear_Leg01]
46 -192.298416 -925.602966 -0.001907 169.986023 3.193444 -159.486847 945.367432
47 -192.298416 -925.602966 -0.001907 169.973755 3.151495 -158.908020 945.367432
48 -192.298416 -925.602966 -0.001907 169.961060 3.109671 -158.329239 945.367432
[Spine1]
46 290.604584 5.007505 0.000477 7.239347 -0.791188 12.873569 290.647736
47 290.604584 5.007505 0.000477 7.242195 -0.785399 13.634754 290.647736
48 290.604584 5.007505 0.000477 7.245114 -0.779648 14.395829 290.647736
[L_Leg01]
46 761.932007 -0.002384 -0.069261 20.242359 -13.598145 -9.583727 761.932068
47 761.932007 -0.002384 -0.069261 20.692600 -13.396585 -9.468500 761.932068
48 761.932007 -0.002384 -0.069261 21.178143 -13.166265 -9.680438 761.932068
[L_Leg02]
46 1441.140503 -0.000954 -0.000715 4.168350 0.406737 -125.213310 1441.140503
47 1441.140503 -0.000954 -0.000715 4.317767 0.448383 -126.669426 1441.140503
48 1441.140503 -0.000954 -0.000715 4.411633 0.477531 -127.544960 1441.140503
[L_Leg03]
46 1686.963989 -0.000715 -0.000954 -0.067980 0.036824 128.671234 1686.963989
47 1686.963989 -0.000715 -0.000954 -0.070086 0.035993 129.063553 1686.963989
48 1686.963989 -0.000715 -0.000954 -0.070047 0.036069 129.187637 1686.963989
[L_Foot]
46 3041.570068 -30.715107 11.297464 1.388227 12.906935 48.842987 3041.746094
47 3041.570068 -30.715107 11.297464 1.331262 12.841678 49.307392 3041.746094
48 3041.570068 -30.715107 11.297464 1.338188 12.826956 49.563667 3041.746094
[L_Toe1_01]
46 -188.216690 -224.732346 -21.137953 94.327606 -6.867934 -179.694199 293.899567
47 -188.216690 -224.732346 -21.137953 94.266983 -6.915002 -179.089249 293.899567
48 -188.216690 -224.732346 -21.137953 94.205833 -6.961430 -178.484207 293.899567
[L_Toe2_01]
46 200.746536 -219.926590 148.838394 -92.449516 -28.390696 -45.279339 332.896027
47 200.746536 -219.926590 148.838394 -92.455933 -28.394493 -45.274731 332.896027
48 200.746536 -219.926590 148.838394 -92.534164 -28.403851 -45.227009 332.896027
[L_Toe3_01]
46 188.832520 -219.859131 -191.078659 -99.076279 16.183769 -59.323711 347.140900
47 188.832520 -219.859131 -191.078659 -98.858429 16.123114 -59.154411 347.140900
48 188.832520 -219.859131 -191.078659 -98.640839 16.061842 -58.985420 347.140900
[planeAlignerLeft]
46 32.778316 -471.250549 101.382439 169.306686 -76.298271 89.968506 483.145813
47 32.167965 -474.789581 102.143860 169.306686 -76.298271 89.968506 486.716858
48 31.251829 -480.306549 103.290024 169.306686 -76.298271 89.968506 492.280273
[L_Toe1_02]
46 413.761139 0.000477 0.000000 0.000203 -25.410625 -0.000182 413.761139
47 413.761139 0.000477 0.000000 0.000203 -25.410625 -0.000182 413.761139
48 413.761139 0.000477 0.000000 0.000203 -25.410625 -0.000182 413.761139
[L_Toe1_03]
46 464.317322 0.000358 -0.000089 0.004468 59.545547 0.004468 464.317322
47 464.317322 0.000358 -0.000089 0.004318 58.454536 0.004318 464.317322
48 464.317322 0.000358 -0.000089 0.004140 57.064049 0.004140 464.317322
[L_Toe2_02]
46 342.235809 -0.000477 0.000238 0.001192 -69.631493 0.001192 342.235809
47 342.235809 -0.000477 0.000238 0.001189 -71.598122 0.001189 342.235809
48 342.235809 -0.000477 0.000238 0.001186 -73.564713 0.001186 342.235809
[L_Toe2_03]
46 420.210846 -0.000715 0.000000 0.011977 78.752808 0.011977 420.210846
47 420.210846 -0.000715 0.000000 0.020428 83.412842 0.020428 420.210846
48 420.210846 -0.000715 0.000000 -0.046802 88.537804 -0.043306 420.210846
[L_Toe3_02]
46 329.270111 0.000954 0.000000 0.001177 -80.785187 0.001177 329.270111
47 329.270111 0.000954 0.000000 0.001177 -81.552666 0.001177 329.270111
48 329.270111 0.000954 0.000000 0.001176 -82.319954 0.001176 329.270111
[L_Toe3_03]
46 439.137451 -0.001907 0.000954 -179.996521 77.402870 -179.992996 439.137451
47 439.137451 -0.001907 0.000954 -179.997650 73.995506 -179.994110 439.137451
48 439.137451 -0.001907 0.000954 -179.998428 70.281387 -179.994873 439.137451
[planeLockWeightLeft]
46 999.998718 0.097961 0.076027 -0.011826 -0.004376 0.005620 999.998779
47 999.998718 0.097961 0.076027 -0.011826 -0.004376 0.005620 999.998779
48 999.998718 0.097961 0.076027 -0.011826 -0.004376 0.005620 999.998779
[R_Leg01]
46 761.455627 -0.001907 -0.000358 123.379967 -12.642642 29.899069 761.455688
47 761.455627 -0.001907 -0.000358 123.067963 -12.530417 29.885483 761.455688
48 761.455627 -0.001907 -0.000358 122.726585 -12.199143 30.084082 761.455688
[R_Leg02]
46 1441.140625 0.000000 -0.000238 -1.934419 -0.574739 -123.554596 1441.140625
47 1441.140625 0.000000 -0.000238 -1.987575 -0.616522 -125.297394 1441.140625
48 1441.140625 0.000000 -0.000238 -2.019681 -0.642792 -126.313179 1441.140625
[R_Leg03]
46 1686.963989 0.000954 0.001431 0.104946 -0.062317 138.238464 1686.963989
47 1686.963989 0.000954 0.001431 0.104739 -0.062665 138.619110 1686.963989
48 1686.963989 0.000954 0.001431 0.104530 -0.063013 138.999741 1686.963989
[R_Foot]
46 3041.560059 -30.531288 -11.204481 0.602068 -24.429678 53.119244 3041.734131
47 3041.560059 -30.531288 -11.204481 0.707665 -24.399578 53.677326 3041.734131
48 3041.560059 -30.531288 -11.204481 0.766518 -24.389946 53.970680 3041.734131
[planeAlignerRight]
46 -127.378227 -452.259094 -313.173492 -36.577137 -71.339012 -64.343925 564.660217
47 -128.063354 -455.790192 -314.021240 -36.577137 -71.339012 -64.343925 568.114624
48 -129.092407 -461.276337 -315.292969 -36.577137 -71.339012 -64.343925 573.454773
[R_Toe1_01]
46 -188.383347 -224.864899 21.052242 77.165695 -0.012907 -175.607910 294.101532
47 -188.383347 -224.864899 21.052242 77.114983 -0.153127 -176.679794 294.101532
48 -188.383347 -224.864899 21.052242 77.066887 -0.294270 -177.751556 294.101532
[R_Toe2_01]
46 200.637817 -220.002121 -148.787384 -88.416733 35.995132 -51.376431 332.857574
47 200.637817 -220.002121 -148.787384 -88.595215 35.943848 -51.742908 332.857574
48 200.637817 -220.002121 -148.787384 -88.797607 35.816433 -52.201839 332.857574
[R_Toe3_01]
46 188.606735 -220.092957 191.126343 -72.956070 -9.760851 -65.893669 347.192566
47 188.606735 -220.092957 191.126343 -73.037804 -9.908907 -66.032623 347.192566
48 188.606735 -220.092957 191.126343 -73.201950 -10.069068 -66.395035 347.192566
[planeLockWeightRight]
46 999.999329 0.000000 0.076017 -0.011823 -0.004379 -0.000027 999.999329
47 999.999329 0.000000 0.076017 -0.011823 -0.004379 -0.000027 999.999329
48 999.999329 0.000000 0.076017 -0.011823 -0.004379 -0.000027 999.999329
[R_Toe1_02]
46 413.762085 0.000477 -0.000119 0.001385 -25.865753 0.001385 413.762085
47 413.762085 0.000477 -0.000119 0.001387 -25.556309 0.001387 413.762085
48 413.762085 0.000477 -0.000119 0.001391 -25.034504 0.001391 413.762085
[R_Toe1_03]
46 464.317810 0.000000 0.001088 0.004274 58.126106 0.004274 464.317810
47 464.317810 0.000000 0.001088 0.004898 62.270821 0.004898 464.317810
48 464.317810 0.000000 0.001088 0.005848 66.845581 0.005848 464.317810
[R_Toe2_02]
46 342.234741 -0.000954 0.000238 0.001205 -63.804344 0.001205 342.234741
47 342.234741 -0.000954 0.000238 0.001199 -66.429283 0.001199 342.234741
48 342.234741 -0.000954 0.000238 0.001193 -69.054192 0.001193 342.234741
[R_Toe2_03]
46 420.210846 0.000715 -0.000268 -0.004689 67.177765 -0.001121 420.210846
47 420.210846 0.000715 -0.000268 -0.005465 72.106102 -0.001926 420.210846
48 420.210846 0.000715 -0.000268 0.010768 77.485291 0.010768 420.210846
[R_Toe3_02]
46 329.270355 -0.000477 -0.000954 0.001183 -75.672653 0.001183 329.270355
47 329.270355 -0.000477 -0.000954 0.001181 -76.993416 0.001181 329.270355
48 329.270355 -0.000477 -0.000954 0.001180 -78.314133 0.001180 329.270355
[R_Toe3_03]
46 439.137939 0.000238 0.001431 -0.019427 86.273636 -0.015928 439.137939
47 439.137939 0.000238 0.001431 0.000000 89.858727 0.003495 439.137939
48 439.137939 0.000238 0.001431 -179.984207 86.246468 -179.980698 439.137939
[Rear_Leg02]
46 1162.777710 -0.029802 0.005960 0.797242 -2.893482 -117.196884 1162.777710
47 1162.777710 -0.029802 0.005960 0.864882 -2.870981 -119.245323 1162.777710
48 1162.777710 -0.029802 0.005960 0.917823 -2.855092 -120.823151 1162.777710
[Rear_Leg03]
46 607.192505 -0.013351 -0.073195 0.010602 -0.004873 65.721260 607.192505
47 607.192505 -0.013351 -0.073195 0.010579 -0.004924 66.277664 607.192505
48 607.192505 -0.013351 -0.073195 0.010566 -0.004951 66.565826 607.192505
[Rear_Leg04]
46 995.874512 -0.020504 -0.011921 -0.043417 -0.018356 61.227852 995.874573
47 995.874512 -0.020504 -0.011921 -0.043577 -0.017971 62.241932 995.874573
48 995.874512 -0.020504 -0.011921 -0.043682 -0.017719 62.905762 995.874573
[Rear_Foot]
46 3096.176270 -0.067472 -0.041425 -143.950729 85.619972 46.096870 3096.176270
47 3096.176270 -0.067472 -0.041425 -144.396317 85.598785 46.022694 3096.176270
48 3096.176270 -0.067472 -0.041425 -144.839447 85.577560 45.950932 3096.176270
[planeAlignerCenter]
46 1.038685 -15.455020 -655.380554 12.240773 -0.001473 179.998184 655.563599
47 1.038666 -16.133732 -658.928528 12.240772 -0.001473 179.998184 659.126831
48 1.039066 -17.168274 -664.512329 12.240772 -0.001473 179.998184 664.734863
[Rear_Toe1_01]
46 0.653352 83.966492 -371.173737 0.248339 34.833282 90.386528 380.553192
47 0.653352 83.966492 -371.173737 0.251824 34.628136 90.388649 380.553192
48 0.653352 83.966492 -371.173737 0.255286 34.422977 90.390701 380.553192
[Rear_Toe2_01]
46 178.200760 -294.826019 -362.060547 -8.146971 25.046112 -67.028168 499.765686
47 178.200760 -294.826019 -362.060547 -8.104491 26.298061 -66.936760 499.765686
48 178.200760 -294.826019 -362.060547 -8.059286 27.549934 -66.843285 499.765686
[Rear_Toe3_01]
46 -153.359680 -308.780914 -362.060852 3.729932 23.617952 -112.278778 499.952881
47 -153.359680 -308.780914 -362.060852 3.720635 25.121086 -112.279076 499.952881
48 -153.359680 -308.780914 -362.060852 3.711213 26.624210 -112.279648 499.952881
[planeLockWeightCenter]
46 1000.000000 0.000305 0.076256 -0.011814 -0.004373 -0.000015 1000.000000
47 1000.000000 0.000305 0.076256 -0.011814 -0.004373 -0.000015 1000.000000
48 1000.000000 0.000305 0.076256 -0.011814 -0.004373 -0.000015 1000.000000
[Rear_Toe1_02]
46 379.707825 0.194073 0.000477 0.000089 -32.830112 0.005570 379.707855
47 379.707825 0.194073 0.000477 0.000497 -33.020969 0.004163 379.707855
48 379.707825 0.194073 0.000477 0.000912 -33.211823 0.002750 379.707855
[Rear_Toe1_03]
46 500.129700 0.165701 0.000119 -0.003956 58.857319 -0.000326 500.129761
47 500.129700 0.165701 0.000119 -0.004115 61.181858 -0.000504 500.129761
48 500.129700 0.165701 0.000119 -0.004337 63.866512 -0.000747 500.129761
[Rear_Toe2_02]
46 340.494507 0.000238 -0.000954 0.001219 -58.632183 0.001219 340.494507
47 340.494507 0.000238 -0.000954 0.001208 -62.813984 0.001208 340.494507
48 340.494507 0.000238 -0.000954 0.001198 -66.995758 0.001198 340.494507
[Rear_Toe2_03]
46 433.103577 0.000000 0.000238 0.003839 54.396545 0.003839 433.103546
47 433.103577 0.000000 0.000238 0.004493 59.716599 0.004493 433.103546
48 433.103577 0.000000 0.000238 0.005540 65.540901 0.005540 433.103546
[Rear_Toe3_02]
46 340.494141 -0.000358 -0.000477 -0.002440 -54.381699 -0.002440 340.494171
47 340.494141 -0.000358 -0.000477 0.001779 -59.095943 -0.004788 340.494171
48 340.494141 -0.000358 -0.000477 0.007127 -63.810143 -0.008307 340.494171
[Rear_Toe3_03]
46 433.103577 0.001431 -0.000238 0.000212 49.298531 -0.003517 433.103546
47 433.103577 0.001431 -0.000238 -0.000076 54.958874 -0.003742 433.103546
48 433.103577 0.001431 -0.000238 -0.000498 61.107182 -0.004109 433.103546
[Back_Bone]
46 1312.175781 -701.934692 0.000954 0.002339 0.002339 -89.599701 1488.125488
47 1312.175781 -701.934692 0.000954 0.004671 0.002329 -89.562546 1488.125488
48 1312.175781 -701.934692 0.000954 0.007003 0.002318 -89.525368 1488.125488
[Head]
46 1406.159424 809.709290 0.001431 0.133431 -1.468388 9.447803 1622.625488
47 1406.159424 809.709290 0.001431 0.129097 -1.469386 8.484315 1622.625488
48 1406.159424 809.709290 0.001431 0.124779 -1.470458 7.520759 1622.625488
[Motor_Bone]
46 1158.364380 -417.834747 0.000477 -0.093853 0.078128 -105.853729 1231.419434
47 1158.364380 -417.834747 0.000477 -0.094619 0.077116 -105.884705 1231.419434
48 1158.364380 -417.834747 0.000477 -0.095385 0.076104 -105.915703 1231.419434
[Ping_Mechanism]
46 1270.843506 -451.423187 4.338523 0.000103 -0.000053 82.120995 1348.645630
47 1267.104858 -450.878296 3.805140 0.000103 -0.000053 82.120995 1344.938843
48 1263.673828 -449.867188 3.361946 0.000103 -0.000053 82.120995 1341.366211
[BN_LookIK]
46 193.241119 1380.371704 -0.002861 0.000000 89.965736 -31.038179 1393.832153
47 193.241119 1380.371704 -0.002861 0.000000 89.965736 -31.038179 1393.832153
48 193.241119 1380.371704 -0.002861 0.000000 89.965736 -31.038179 1393.832153
[bottomMouth]
46 -435.092926 615.759399 -0.000954 -0.000022 0.000016 73.527184 753.966492
47 -435.092926 615.759399 -0.000954 -0.000022 0.000016 73.527184 753.966492
48 -435.092926 615.759399 -0.000954 -0.000022 0.000016 73.527184 753.966492
[L_Mouth01]
46 554.440979 7.658243 838.222046 150.204178 23.759130 109.605339 1005.027161
47 554.440979 7.658243 838.222046 150.204178 23.759130 109.605339 1005.027161
48 554.440979 7.658243 838.222046 150.204178 23.759130 109.605339 1005.027161
[L_mouthFront]
46 551.629089 934.514771 339.150421 0.000081 2.804060 79.119301 1136.941284
47 551.629089 934.514771 339.150421 0.000081 2.804060 79.119301 1136.941284
48 551.629089 934.514771 339.150421 0.000081 2.804060 79.119301 1136.941284
[mouthGun]
46 55.332661 1627.420898 0.000000 0.000023 0.000009 -11.038128 1628.361328
47 55.332661 1627.420898 0.000000 0.000023 0.000009 -11.038128 1628.361328
48 55.332661 1627.420898 0.000000 0.000023 0.000009 -11.038128 1628.361328
[R_Mouth01]
46 554.442383 7.659197 -838.223938 29.795891 -23.759109 109.605331 1005.029541
47 554.442383 7.659197 -838.223938 29.795891 -23.759109 109.605331 1005.029541
48 554.442383 7.659197 -838.223938 29.795891 -23.759109 109.605331 1005.029541
[R_mouthFront]
46 551.629089 934.514282 -339.151367 0.000029 -2.803930 79.119133 1136.941162
47 551.629089 934.514282 -339.151367 0.000029 -2.803930 79.119133 1136.941162
48 551.629089 934.514282 -339.151367 0.000029 -2.803930 79.119133 1136.941162
[TopMouth]
46 461.269867 -56.106091 -0.008583 -0.000059 -0.000268 92.025169 464.669525
47 461.269867 -56.106091 -0.008583 -0.000059 -0.000268 92.025169 464.669525
48 461.269867 -56.106091 -0.008583 -0.000059 -0.000268 92.025169 464.669525
[weapon_bone]
46 -987.239868 1448.372803 0.001431 0.000000 89.965736 -31.038221 1752.833740
47 -987.239868 1448.372803 0.001431 0.000000 89.965736 -31.038221 1752.833740
48 -987.239868 1448.372803 0.001431 0.000000 89.965736 -31.038221 1752.833740
